<svg version="1.1" id="Layer_1" xmlns="http://www.w3.org/2000/svg" xmlns:xlink="http://www.w3.org/1999/xlink" x="0px" y="0px"
	viewBox="1152.904 1.866 485.977 169.492"
	 enable-background="new 1152.904 1.866 485.977 169.492" xml:space="preserve">
<rect x="1152.904" y="1.866" width="485.977" height="169.492"/>
<g>
	<path fill="#FFFFFF" d="M1195.736,46.472c6.399-1.04,12.12-1.56,17.16-1.56c10.279,0,17.97,2.4,23.07,7.2
		c5.1,4.8,7.649,12.202,7.649,22.2c0,9.682-2.71,16.961-8.13,21.841c-5.421,4.88-13.79,7.319-25.109,7.319
		c-3.961,0-7.48-0.158-10.561-0.479v31.56h-4.08V46.472z M1232.337,93.392c4.64-4.08,6.96-10.359,6.96-18.84
		c0-8.919-2.131-15.429-6.391-19.53c-4.26-4.1-10.93-6.15-20.01-6.15c-4.24,0-8.601,0.321-13.08,0.96v49.081
		c3,0.4,6.64,0.601,10.92,0.601C1220.496,99.513,1227.696,97.472,1232.337,93.392z"/>
	<path fill="#FFFFFF" d="M1257.775,134.552v-96.96h4.08v96.96H1257.775z"/>
	<path fill="#FFFFFF" d="M1283.035,131.132c-3-3-4.5-8.02-4.5-15.06V69.753h4.08v46.559c0,5.521,1.119,9.461,3.36,11.82
		c2.239,2.361,5.399,3.541,9.479,3.541c3.12,0,6.33-0.859,9.63-2.58s5.93-4.42,7.891-8.101V69.753h4.079v64.799h-3.6l-0.36-7.199
		h-0.479c-2.28,2.721-4.92,4.779-7.92,6.18s-6.12,2.1-9.36,2.1C1290.135,135.632,1286.035,134.132,1283.035,131.132z"/>
	<path fill="#FFFFFF" d="M1334.334,69.753h3.601l0.359,8.76h0.48c2.04-3,4.56-5.29,7.56-6.871c3-1.579,6.16-2.369,9.48-2.369
		c1.2,0,2.28,0.08,3.24,0.24v4.08c-0.801-0.08-1.92-0.121-3.36-0.121c-3.44,0-6.74,1.001-9.9,3c-3.16,2.001-5.62,4.801-7.38,8.4
		v49.68h-4.08V69.753z"/>
	<path fill="#FFFFFF" d="M1367.662,51.932c-0.7-0.68-1.05-1.58-1.05-2.7c0-1.12,0.35-2.04,1.05-2.76c0.699-0.72,1.59-1.08,2.67-1.08
		s1.97,0.36,2.67,1.08c0.7,0.72,1.051,1.641,1.051,2.76c0,1.12-0.351,2.02-1.051,2.7c-0.7,0.681-1.59,1.02-2.67,1.02
		S1368.361,52.613,1367.662,51.932z M1368.292,134.552V69.753h4.08v64.799H1368.292z"/>
	<path fill="#FFFFFF" d="M1390.852,134.312v-87.84c6.399-1.04,11.96-1.56,16.68-1.56c12.399,0,21.66,3.69,27.78,11.071
		c6.12,7.38,9.181,18.771,9.181,34.17c0,10.56-1.451,19.161-4.351,25.8c-2.9,6.641-7.2,11.5-12.899,14.58
		c-5.7,3.08-12.831,4.619-21.391,4.619C1401.691,135.152,1396.691,134.873,1390.852,134.312z M1425.172,127.052
		c5-2.76,8.75-7.148,11.25-13.17c2.499-6.02,3.75-13.93,3.75-23.729c0-9.68-1.161-17.55-3.48-23.61
		c-2.32-6.06-5.89-10.52-10.71-13.38c-4.82-2.859-11.05-4.29-18.689-4.29c-3.761,0-7.881,0.321-12.36,0.96v80.761
		c3.319,0.4,6.999,0.6,11.04,0.6C1413.771,131.193,1420.171,129.812,1425.172,127.052z"/>
	<path fill="#FFFFFF" d="M1496.69,103.953h-36.721c0.08,6.921,0.9,12.4,2.46,16.439c1.561,4.041,3.8,6.93,6.721,8.67
		c2.919,1.74,6.66,2.611,11.22,2.611c3.68,0,8.16-0.84,13.44-2.521v4.08c-4.601,1.6-9.161,2.4-13.681,2.4
		c-5.44,0-9.95-1.09-13.529-3.27c-3.581-2.18-6.301-5.73-8.16-10.65c-1.86-4.92-2.79-11.439-2.79-19.56
		c0-11.761,1.88-20.259,5.64-25.5c3.76-5.239,8.88-7.86,15.36-7.86c6.439,0,11.39,2.57,14.85,7.711
		c3.46,5.14,5.19,13.689,5.19,25.649V103.953z M1464.62,78.873c-2.94,4.08-4.49,11.121-4.65,21.12h32.4
		c-0.081-6.88-0.78-12.319-2.1-16.319c-1.32-4-3.111-6.82-5.37-8.461c-2.261-1.639-5.011-2.459-8.25-2.459
		C1471.569,72.753,1467.561,74.792,1464.62,78.873z"/>
	<path fill="#FFFFFF" d="M1506.89,133.353v-4.08c2.641,0.84,5.03,1.449,7.17,1.83s4.27,0.57,6.391,0.57
		c5.16,0,9.149-1.17,11.97-3.51c2.82-2.342,4.23-5.691,4.23-10.051c0-3.8-0.891-6.721-2.67-8.76c-1.781-2.041-4.53-3.6-8.25-4.68
		l-5.521-1.561c-5.24-1.52-8.95-3.64-11.13-6.359c-2.181-2.721-3.271-6.24-3.271-10.561c0-3.36,0.8-6.35,2.4-8.971
		c1.6-2.619,3.939-4.68,7.021-6.18c3.079-1.5,6.739-2.25,10.979-2.25c3.999,0,7.88,0.441,11.64,1.32v4.08
		c-2.12-0.52-4.07-0.89-5.85-1.11c-1.78-0.22-3.711-0.329-5.79-0.329c-3.561,0-6.55,0.58-8.97,1.739
		c-2.421,1.161-4.23,2.729-5.431,4.71c-1.199,1.98-1.8,4.23-1.8,6.75c0,3.441,0.85,6.18,2.55,8.221c1.7,2.039,4.37,3.58,8.011,4.619
		l5.52,1.561c5.479,1.56,9.31,3.75,11.49,6.57c2.18,2.819,3.27,6.471,3.27,10.949c0,5.602-1.78,9.961-5.34,13.08
		c-3.561,3.119-8.58,4.68-15.06,4.68C1515.85,135.632,1511.33,134.873,1506.89,133.353z"/>
	<path fill="#FFFFFF" d="M1591.01,134.552l-23.28-31.199h-10.32v31.199h-4.08v-96.96h4.08v61.921h10.261l21.539-29.76h4.921
		l-22.86,31.68l24.78,33.119H1591.01z"/>
</g>
</svg>