<svg xmlns="http://www.w3.org/2000/svg" viewBox="0 0 512 512"><path d="M234.442 237.137a8.084 8.084 0 0 0 8.084-8.084 8.083 8.083 0 0 0-8.084-8.084c-16.344 0-29.642 13.297-29.642 29.642v10.779c0 16.345 13.298 29.642 29.642 29.642h10.779a8.084 8.084 0 0 0 8.084-8.084 8.083 8.083 0 0 0-8.084-8.084h-10.779c-7.43 0-13.474-6.044-13.474-13.474v-10.779c0-7.43 6.044-13.474 13.474-13.474zM460.8 421.996a8.084 8.084 0 0 0-8.084 8.084v22.636H430.08c-4.466 0-8.084 3.62-8.084 8.084s3.618 8.084 8.084 8.084h30.72a8.084 8.084 0 0 0 8.084-8.084v-30.72a8.083 8.083 0 0 0-8.084-8.084zM331.453 150.905h-97.011a8.084 8.084 0 0 0-8.084 8.084 8.083 8.083 0 0 0 8.084 8.084h97.011c7.43 0 13.474 6.044 13.474 13.474v150.905c0 7.43-6.044 13.474-13.474 13.474h-21.558a8.084 8.084 0 0 0-8.084 8.084 8.083 8.083 0 0 0 8.084 8.084h21.558c16.344 0 29.642-13.297 29.642-29.642V180.547c0-16.345-13.298-29.642-29.642-29.642z"/><path d="M436.547 408.963v-54.681c0-10.515-5.843-19.969-15.248-24.672a11.353 11.353 0 0 1-6.31-10.21V192.597c0-4.351 2.418-8.263 6.31-10.21 9.405-4.702 15.248-14.156 15.248-24.671v-54.681c0-15.209-12.373-27.583-27.583-27.583h-54.681c-10.516 0-19.97 5.842-24.671 15.248a11.355 11.355 0 0 1-10.211 6.31H192.599a11.356 11.356 0 0 1-10.211-6.31c-4.703-9.406-14.156-15.248-24.672-15.248h-54.681c-15.21 0-27.583 12.374-27.583 27.583v54.682c0 10.515 5.843 19.969 15.248 24.671a11.353 11.353 0 0 1 6.31 10.21v126.804c0 4.351-2.418 8.263-6.31 10.21-9.405 4.702-15.248 14.156-15.248 24.671v54.682c0 15.209 12.373 27.583 27.583 27.583h54.681c10.516 0 19.97-5.842 24.672-15.248a11.355 11.355 0 0 1 10.211-6.31H319.4c4.351 0 8.264 2.418 10.211 6.31 4.703 9.406 14.156 15.248 24.672 15.248h54.681c15.21-.001 27.583-12.375 27.583-27.585zm-16.167.001c0 6.294-5.121 11.415-11.415 11.415h-54.681a11.356 11.356 0 0 1-10.211-6.31c-4.703-9.406-14.156-15.248-24.672-15.248H192.599c-10.516 0-19.97 5.842-24.672 15.247a11.355 11.355 0 0 1-10.211 6.31h-54.681c-6.294 0-11.415-5.121-11.415-11.415v-54.681c0-4.351 2.418-8.263 6.31-10.21 9.405-4.702 15.248-14.156 15.248-24.671V192.598c0-10.515-5.843-19.969-15.248-24.672a11.353 11.353 0 0 1-6.31-10.21v-54.681c0-6.294 5.121-11.415 11.415-11.415h54.681c4.351 0 8.264 2.418 10.211 6.31 4.703 9.406 14.156 15.248 24.672 15.248H319.4c10.516 0 19.97-5.842 24.672-15.248a11.355 11.355 0 0 1 10.211-6.31h54.681c6.294 0 11.415 5.121 11.415 11.415v54.682c0 4.352-2.418 8.263-6.31 10.21-9.405 4.702-15.248 14.156-15.248 24.671v126.804c0 10.515 5.843 19.969 15.248 24.671a11.353 11.353 0 0 1 6.31 10.21h.001v54.681z"/><path d="M512 191.326v-10.779c0-7.505-4.417-13.981-10.779-17.017V40.421a8.085 8.085 0 0 0-2.367-5.716l-21.558-21.558a8.085 8.085 0 0 0-5.717-2.368H348.467C345.433 4.417 338.956 0 331.45 0h-10.779c-7.505 0-13.981 4.417-17.017 10.779h-25.25C275.371 4.417 268.894 0 261.388 0h-10.779c-7.505 0-13.981 4.417-17.017 10.779h-25.25C205.309 4.417 198.832 0 191.326 0h-10.779c-7.505 0-13.981 4.417-17.017 10.779H40.421a8.09 8.09 0 0 0-5.717 2.368L13.146 34.705a8.083 8.083 0 0 0-2.367 5.716v123.112C4.417 166.567 0 173.044 0 180.55v10.779c0 7.505 4.417 13.981 10.779 17.017v25.25C4.417 236.629 0 243.106 0 250.612v10.779c0 7.505 4.417 13.981 10.779 17.017v25.25C4.417 306.691 0 313.168 0 320.674v10.779c0 7.505 4.417 13.981 10.779 17.017v123.11c0 2.144.852 4.201 2.367 5.716l21.558 21.558a8.085 8.085 0 0 0 5.717 2.368h123.112c3.034 6.362 9.511 10.779 17.017 10.779h10.779c7.505 0 13.981-4.417 17.017-10.779h25.25c3.034 6.362 9.511 10.779 17.017 10.779h10.779c7.505 0 13.981-4.417 17.017-10.779h25.25c3.034 6.362 9.511 10.779 17.017 10.779h10.779c7.505 0 13.981-4.417 17.017-10.779h123.11a8.084 8.084 0 0 0 5.717-2.368l21.558-21.558a8.083 8.083 0 0 0 2.367-5.716V348.467c6.362-3.034 10.779-9.511 10.779-17.017v-10.779c0-7.505-4.417-13.981-10.779-17.017v-25.25c6.362-3.034 10.779-9.511 10.779-17.017v-10.779c0-7.505-4.417-13.981-10.779-17.017v-25.25c6.359-3.032 10.776-9.509 10.776-17.015zM317.979 18.863a2.698 2.698 0 0 1 2.695-2.695h10.779a2.698 2.698 0 0 1 2.695 2.695v21.558a2.698 2.698 0 0 1-2.695 2.695h-10.779a2.698 2.698 0 0 1-2.695-2.695V18.863zm-70.063 0a2.698 2.698 0 0 1 2.695-2.695h10.779a2.698 2.698 0 0 1 2.695 2.695v21.558a2.698 2.698 0 0 1-2.695 2.695h-10.779a2.698 2.698 0 0 1-2.695-2.695V18.863zm-70.063 0a2.698 2.698 0 0 1 2.695-2.695h10.779a2.698 2.698 0 0 1 2.695 2.695v21.558a2.698 2.698 0 0 1-2.695 2.695h-10.779a2.698 2.698 0 0 1-2.695-2.695V18.863zM16.168 180.547a2.698 2.698 0 0 1 2.691-2.695H40.42a2.698 2.698 0 0 1 2.695 2.695v10.779a2.698 2.698 0 0 1-2.695 2.695H18.86a2.697 2.697 0 0 1-2.691-2.695v-10.779zm0 70.064a2.698 2.698 0 0 1 2.695-2.695h21.558a2.698 2.698 0 0 1 2.695 2.695v10.779a2.698 2.698 0 0 1-2.695 2.695H18.86a2.698 2.698 0 0 1-2.691-2.695v-10.779zm2.695 83.536h-.003a2.697 2.697 0 0 1-2.691-2.695v-10.779a2.698 2.698 0 0 1 2.695-2.695h21.558a2.698 2.698 0 0 1 2.695 2.695v10.779a2.698 2.698 0 0 1-2.695 2.695H18.863zm175.158 158.99a2.698 2.698 0 0 1-2.695 2.695h-10.779a2.698 2.698 0 0 1-2.695-2.695v-21.558a2.698 2.698 0 0 1 2.695-2.695h10.779a2.698 2.698 0 0 1 2.695 2.695v21.558zm70.063 0a2.698 2.698 0 0 1-2.695 2.695H250.61a2.698 2.698 0 0 1-2.695-2.695v-21.558a2.698 2.698 0 0 1 2.695-2.695h10.779a2.698 2.698 0 0 1 2.695 2.695v21.558zm70.063 0a2.698 2.698 0 0 1-2.695 2.695h-10.779a2.698 2.698 0 0 1-2.695-2.695v-21.558a2.698 2.698 0 0 1 2.695-2.695h10.779a2.698 2.698 0 0 1 2.695 2.695v21.558zm150.906-24.906l-16.822 16.822H350.316v-13.474c0-10.401-8.463-18.863-18.863-18.863h-10.779c-10.401 0-18.863 8.463-18.863 18.863v13.474h-21.558v-13.474c0-10.401-8.463-18.863-18.863-18.863h-10.779c-10.401 0-18.863 8.463-18.863 18.863v13.474H210.19v-13.474c0-10.401-8.463-18.863-18.863-18.863h-10.779c-10.401 0-18.863 8.463-18.863 18.863v13.474H43.769l-16.822-16.822V350.316h13.474c10.401 0 18.863-8.463 18.863-18.863v-10.779c0-10.401-8.463-18.863-18.863-18.863H26.947v-21.558h13.474c10.401 0 18.863-8.463 18.863-18.863v-10.779c0-10.401-8.463-18.863-18.863-18.863H26.947V210.19h13.474c10.401 0 18.863-8.463 18.863-18.863v-10.779c0-10.401-8.463-18.863-18.863-18.863H26.947V43.769l16.822-16.822h117.915v13.474c0 10.401 8.463 18.863 18.863 18.863h10.779c10.401 0 18.863-8.463 18.863-18.863V26.947h21.558v13.474c0 10.401 8.463 18.863 18.863 18.863h10.779c10.401 0 18.863-8.463 18.863-18.863V26.947h21.558v13.474c0 10.401 8.463 18.863 18.863 18.863h10.779c10.401 0 18.863-8.463 18.863-18.863V26.947H468.23l16.822 16.822v117.915h-13.474c-10.401 0-18.863 8.463-18.863 18.863v10.779c0 10.401 8.463 18.863 18.863 18.863h13.474v21.558h-13.474c-10.401 0-18.863 8.463-18.863 18.863v10.779c0 10.401 8.463 18.863 18.863 18.863h13.474v21.558h-13.474c-10.401 0-18.863 8.463-18.863 18.863v10.779c0 10.401 8.463 18.863 18.863 18.863h13.474v117.916zm10.779-136.778a2.698 2.698 0 0 1-2.691 2.695H471.58a2.698 2.698 0 0 1-2.695-2.695v-10.779a2.698 2.698 0 0 1 2.695-2.695h21.558a2.698 2.698 0 0 1 2.695 2.695v10.779zm0-70.064a2.698 2.698 0 0 1-2.691 2.695H471.58a2.698 2.698 0 0 1-2.695-2.695V250.61a2.698 2.698 0 0 1 2.695-2.695h21.558a2.698 2.698 0 0 1 2.695 2.695v10.779zm0-70.063a2.698 2.698 0 0 1-2.691 2.695H471.58a2.698 2.698 0 0 1-2.695-2.695v-10.779a2.698 2.698 0 0 1 2.695-2.695h21.561a2.697 2.697 0 0 1 2.691 2.695v10.779z"/><path d="M81.92 452.716H59.284V430.08a8.084 8.084 0 0 0-16.168 0v30.72a8.084 8.084 0 0 0 8.084 8.084h30.72c4.466 0 8.084-3.62 8.084-8.084s-3.618-8.084-8.084-8.084zM430.08 59.284h22.636V81.92a8.084 8.084 0 0 0 8.084 8.084 8.084 8.084 0 0 0 8.084-8.084V51.2a8.083 8.083 0 0 0-8.084-8.084h-30.72c-4.466 0-8.084 3.62-8.084 8.084s3.618 8.084 8.084 8.084zM59.284 59.284H81.92c4.466 0 8.084-3.62 8.084-8.084s-3.618-8.084-8.084-8.084H51.2a8.084 8.084 0 0 0-8.084 8.084v30.72a8.084 8.084 0 0 0 16.168 0V59.284zM307.2 250.611c0-16.345-13.298-29.642-29.642-29.642h-10.779a8.084 8.084 0 0 0-8.084 8.084 8.083 8.083 0 0 0 8.084 8.084h10.779c7.43 0 13.474 6.044 13.474 13.474v10.779c0 7.43-6.044 13.474-13.474 13.474a8.084 8.084 0 0 0-8.084 8.084 8.083 8.083 0 0 0 8.084 8.084c16.344 0 29.642-13.297 29.642-29.642v-10.779zM277.558 344.926h-97.011c-7.43 0-13.474-6.044-13.474-13.474V180.547c0-7.43 6.044-13.474 13.474-13.474h21.558a8.084 8.084 0 0 0 8.084-8.084 8.083 8.083 0 0 0-8.084-8.084h-21.558c-16.344 0-29.642 13.297-29.642 29.642v150.905c0 16.345 13.298 29.642 29.642 29.642h97.011a8.084 8.084 0 0 0 8.084-8.084 8.084 8.084 0 0 0-8.084-8.084z"/></svg>