<svg xmlns="http://www.w3.org/2000/svg" viewBox="0 0 512 512"><path d="M488.906 84H384a7.497 7.497 0 0 0-7.5 7.5c0 4.145 3.355 7.5 7.5 7.5h104.906c4.465 0 8.094 3.629 8.094 8.094v288.812c0 4.465-3.629 8.094-8.094 8.094H23.094c-4.465 0-8.094-3.629-8.094-8.094V107.094C15 102.629 18.629 99 23.094 99h164.781v15H37.5a7.497 7.497 0 0 0-7.5 7.5v198.168a7.5 7.5 0 0 0 7.5 7.5 7.5 7.5 0 0 0 7.5-7.5V129h142.875v40.234l-32.11 15.34a7.554 7.554 0 0 0-4.265 6.77v122.312c0 2.89 1.66 5.524 4.266 6.77l97 46.344a7.603 7.603 0 0 0 6.468 0l54.532-26.055a7.5 7.5 0 1 0-6.47-13.535L263.5 348.105v-105.69l82-39.177V308.93l-11.14 5.32a7.5 7.5 0 0 0 6.464 13.535l15.41-7.36a7.504 7.504 0 0 0 4.266-6.769V191.344a7.546 7.546 0 0 0-4.266-6.77l-32.109-15.34V129H467v245H45v-22.332c0-4.145-3.355-7.5-7.5-7.5a7.497 7.497 0 0 0-7.5 7.5V381.5c0 4.145 3.355 7.5 7.5 7.5h437c4.145 0 7.5-3.355 7.5-7.5v-260c0-4.145-3.355-7.5-7.5-7.5H324.125V99H352c4.145 0 7.5-3.355 7.5-7.5S356.145 84 352 84h-27.875V69h67.25c4.145 0 7.5-3.355 7.5-7.5V43.71c8.73-3.097 15-11.433 15-21.21 0-12.406-10.094-22.5-22.5-22.5s-22.5 10.094-22.5 22.5c0 9.777 6.27 18.113 15 21.21V54h-67.25a7.497 7.497 0 0 0-7.5 7.5V84H263.5V43.71c8.73-3.097 15-11.433 15-21.21C278.5 10.094 268.406 0 256 0s-22.5 10.094-22.5 22.5c0 9.777 6.27 18.113 15 21.21V84h-45.625V61.5c0-4.145-3.355-7.5-7.5-7.5h-67.25V43.71c8.73-3.097 15-11.433 15-21.21 0-12.406-10.094-22.5-22.5-22.5s-22.5 10.094-22.5 22.5c0 9.777 6.27 18.113 15 21.21V61.5c0 4.145 3.355 7.5 7.5 7.5h67.25v15H23.094C10.359 84 0 94.36 0 107.094v288.812C0 408.641 10.36 419 23.094 419h162.601c-2.902 27.512-21.093 43.578-26.828 48H127c-12.406 0-22.5 10.094-22.5 22.5S114.594 512 127 512h258c12.406 0 22.5-10.094 22.5-22.5S397.406 467 385 467h-31.848c-5.66-4.406-23.914-20.617-26.84-48h162.594C501.641 419 512 408.64 512 395.906V107.094C512 94.359 501.64 84 488.906 84zm-97.531-69c4.137 0 7.5 3.363 7.5 7.5 0 4.137-3.363 7.5-7.5 7.5-4.137 0-7.5-3.363-7.5-7.5 0-4.137 3.363-7.5 7.5-7.5zM256 15c4.137 0 7.5 3.363 7.5 7.5 0 4.137-3.363 7.5-7.5 7.5-4.137 0-7.5-3.363-7.5-7.5 0-4.137 3.363-7.5 7.5-7.5zm-135.375 0c4.137 0 7.5 3.363 7.5 7.5 0 4.137-3.363 7.5-7.5 7.5-4.137 0-7.5-3.363-7.5-7.5 0-4.137 3.363-7.5 7.5-7.5zm82.25 114H248.5v11.27l-45.625 21.8zm132.727 62.344L256 229.37l-79.602-38.027L256 153.313zM166.5 203.238l82 39.176v105.691l-82-39.175zm142.625-41.168l-45.625-21.8V129h45.625zm0-63.07v15H263.5V99zM248.5 99v15h-45.625V99zm144 390.5c0 4.137-3.363 7.5-7.5 7.5H127c-4.137 0-7.5-3.363-7.5-7.5 0-4.137 3.363-7.5 7.5-7.5h258c4.137 0 7.5 3.363 7.5 7.5zM331.64 467H180.36c8.792-10.27 18.546-26.273 20.417-48h110.446c1.87 21.727 11.625 37.73 20.418 48zm0 0"/></svg>