<svg xmlns="http://www.w3.org/2000/svg" viewBox="0 0 512 512"><path d="M411.612 56.377H204.438c-5.512 0-9.981 4.47-9.981 9.981 0 5.512 4.47 9.981 9.981 9.981h207.174c5.512 0 9.981-4.47 9.981-9.981s-4.47-9.981-9.981-9.981zM103.234 59.302a10.054 10.054 0 0 0-7.057-2.924c-2.625 0-5.2 1.067-7.056 2.924a10.039 10.039 0 0 0-2.925 7.057c0 2.625 1.068 5.2 2.925 7.056a10.05 10.05 0 0 0 7.056 2.925c2.626 0 5.2-1.068 7.057-2.925a10.05 10.05 0 0 0 2.924-7.056c0-2.626-1.067-5.201-2.924-7.057zM66.553 59.302a10.054 10.054 0 0 0-7.057-2.924c-2.625 0-5.2 1.067-7.056 2.924a10.057 10.057 0 0 0-2.925 7.057c0 2.625 1.068 5.2 2.925 7.056a10.05 10.05 0 0 0 7.056 2.925c2.626 0 5.2-1.068 7.057-2.925a10.05 10.05 0 0 0 2.924-7.056 10.044 10.044 0 0 0-2.924-7.057zM139.915 59.302a10.076 10.076 0 0 0-7.067-2.924 10.07 10.07 0 0 0-7.056 2.924 10.061 10.061 0 0 0-2.925 7.057c0 2.625 1.068 5.2 2.925 7.056a10.069 10.069 0 0 0 7.056 2.925c2.636 0 5.2-1.068 7.067-2.925a10.04 10.04 0 0 0 2.914-7.056 10.038 10.038 0 0 0-2.914-7.057z"/><path d="M509.077 436.161l-78.575-78.574 12.327-12.327.01-.009.009-.01 12.324-12.324 38.817 38.818c3.899 3.897 10.217 3.897 14.116 0 3.898-3.898 3.898-10.218 0-14.116l-45.874-45.874c-3.897-3.896-10.215-3.898-14.116 0l-12.334 12.333-5.975-5.975c17.162-20.347 27.521-46.61 27.521-75.25 0-64.451-52.435-116.886-116.886-116.886-33.204 0-63.219 13.918-84.517 36.225-.094-.003-.185-.014-.279-.014H63.879c-5.512 0-9.981 4.47-9.981 9.981v139.736c0 5.512 4.47 9.981 9.981 9.981h190.515c21.38 23.261 52.038 37.864 86.046 37.864 28.64 0 54.901-10.36 75.25-27.521l5.975 5.975-12.337 12.337a9.984 9.984 0 0 0 0 14.116l41.819 41.819v43.169c0 12.108-9.85 21.958-21.958 21.958H41.921c-12.108 0-21.958-9.85-21.958-21.958V112.266c.037 0 .073.006.109.006h431.076v44.988c0 5.512 4.47 9.981 9.981 9.981s9.981-4.47 9.981-9.981V62.366c0-23.115-18.805-41.921-41.921-41.921H41.921C18.805 20.445 0 39.251 0 62.366v387.268c0 23.115 18.805 41.921 41.921 41.921h387.268c23.115 0 41.921-18.805 41.921-41.921v-23.208l23.851 23.851c1.949 1.948 4.503 2.923 7.058 2.923s5.108-.975 7.058-2.923c3.897-3.898 3.897-10.218 0-14.116zm-285.485-190.27l-12.578-24.297c-2.534-4.896-8.559-6.809-13.454-4.275-4.895 2.534-6.809 8.557-4.275 13.454l23.438 45.275a9.98 9.98 0 0 0 8.872 5.394 9.931 9.931 0 0 0 4.179-.94 116.319 116.319 0 0 0 9.834 21.411H73.86V182.139h166.733c-10.807 17.707-17.04 38.495-17.04 60.713 0 1.017.013 2.03.039 3.039zm116.848 93.884c-53.443 0-96.924-43.479-96.924-96.923 0-.761.011-1.519.029-2.276l18.361 35.47a9.98 9.98 0 0 0 8.863 5.393l.15-.001a9.981 9.981 0 0 0 8.848-5.659l21.745-45.275c2.386-4.97.292-10.931-4.677-13.319-4.965-2.385-10.931-.292-13.319 4.677l-13.081 27.239-14.239-27.506c-1.789-3.455-5.316-5.416-8.956-5.386 11.604-40.53 48.992-70.281 93.2-70.281 53.444 0 96.924 43.481 96.924 96.924 0 53.443-43.481 96.923-96.924 96.923zM19.962 62.366c0-12.108 9.85-21.958 21.958-21.958h387.268c12.108 0 21.958 9.85 21.958 21.958v29.943H20.071c-.037 0-.073.005-.109.006V62.366z"/><path d="M182.476 217.185c-4.965-2.384-10.931-.292-13.319 4.677L156.076 249.1l-14.239-27.506a9.941 9.941 0 0 0-9.013-5.392 9.981 9.981 0 0 0-8.848 5.659l-13.081 27.238-14.239-27.506c-2.534-4.897-8.561-6.81-13.453-4.276-4.896 2.534-6.81 8.557-4.276 13.453l23.437 45.275a9.981 9.981 0 0 0 17.861-.267l13.081-27.239 14.239 27.506a9.98 9.98 0 0 0 8.863 5.393l.15-.001a9.981 9.981 0 0 0 8.848-5.659l21.745-45.275c2.388-4.968.295-10.93-4.675-13.318zM411.197 217.185c-4.97-2.384-10.931-.292-13.319 4.677L384.797 249.1l-14.239-27.507c-1.739-3.36-5.258-5.437-9.013-5.391a9.981 9.981 0 0 0-8.848 5.659L339.616 249.1l-14.239-27.507c-2.534-4.894-8.555-6.809-13.454-4.275-4.895 2.534-6.809 8.557-4.275 13.454l23.438 45.275a9.982 9.982 0 0 0 8.863 5.392l.15-.001a9.981 9.981 0 0 0 8.848-5.659l13.081-27.238 14.239 27.507a9.982 9.982 0 0 0 8.863 5.392l.15-.001a9.981 9.981 0 0 0 8.848-5.659l21.744-45.275c2.387-4.97.293-10.932-4.675-13.32zM70.935 400.656a10.012 10.012 0 0 0-7.056-2.924c-2.625 0-5.2 1.058-7.057 2.924a10.056 10.056 0 0 0-2.924 7.057c0 2.625 1.067 5.2 2.924 7.056a10.057 10.057 0 0 0 7.057 2.925c2.625 0 5.2-1.068 7.056-2.925a10.05 10.05 0 0 0 2.925-7.056c0-2.625-1.068-5.2-2.925-7.057zM292.515 397.742H98.147c-5.512 0-9.981 4.469-9.981 9.981s4.47 9.981 9.981 9.981h194.367c5.512 0 9.981-4.47 9.981-9.981.001-5.512-4.468-9.981-9.98-9.981zM255.517 349.827h-58.889c-5.512 0-9.981 4.47-9.981 9.981 0 5.512 4.47 9.981 9.981 9.981h58.889c5.512 0 9.981-4.47 9.981-9.981s-4.469-9.981-9.981-9.981zM151.804 349.827H63.879c-5.512 0-9.981 4.47-9.981 9.981 0 5.512 4.47 9.981 9.981 9.981h87.925c5.512 0 9.981-4.47 9.981-9.981s-4.469-9.981-9.981-9.981z"/></svg>